<svg width="204" height="114" viewBox="0 0 204 114" fill="none" xmlns="http://www.w3.org/2000/svg">
<path d="M0 0.0263672C0 0.0263672 11.1463 13.0439 22.7699 18.0309C30.6066 21.3931 42.4665 26.3837 56.9351 29.1857C69.609 31.6401 77.4063 32.5689 90.4982 33.7968C106.483 35.296 123.983 35.474 123.983 35.474V8.22467L203.978 60.6273L123.983 113.928V86.6788C123.983 86.6788 110.68 87.4165 97.9199 86.0786C89.7663 85.2237 76.9194 82.5575 71.7319 80.9894C56.5707 76.4066 49.0569 72.5172 37.4139 64.7358C27.3187 57.9889 16.8318 46.2617 9.59039 32.3743C3.27061 20.2544 0 0.0263672 0 0.0263672Z" fill="#1E88E5"/>
<path d="M93.2117 43.6127C94.1824 43.6127 95.025 43.7727 95.7397 44.0927C96.465 44.4127 97.0197 44.8714 97.4037 45.4687C97.7877 46.0661 97.9797 46.7754 97.9797 47.5967C97.9797 48.4074 97.7877 49.1167 97.4037 49.7247C97.0197 50.3221 96.465 50.7807 95.7397 51.1007C95.025 51.4207 94.1824 51.5807 93.2117 51.5807H90.6837V54.8127H88.6037V43.6127H93.2117ZM93.1157 49.8207C94.0224 49.8207 94.7104 49.6287 95.1797 49.2447C95.649 48.8607 95.8837 48.3114 95.8837 47.5967C95.8837 46.8821 95.649 46.3327 95.1797 45.9487C94.7104 45.5647 94.0224 45.3727 93.1157 45.3727H90.6837V49.8207H93.1157ZM101.691 47.5167C102.267 46.6207 103.28 46.1727 104.731 46.1727V48.0767C104.56 48.0447 104.405 48.0287 104.267 48.0287C103.488 48.0287 102.88 48.2581 102.443 48.7167C102.005 49.1647 101.787 49.8154 101.787 50.6687V54.8127H99.7867V46.2687H101.691V47.5167ZM106.427 46.2687H108.427V54.8127H106.427V46.2687ZM107.435 44.8607C107.073 44.8607 106.769 44.7487 106.523 44.5247C106.278 44.2901 106.155 44.0021 106.155 43.6607C106.155 43.3194 106.278 43.0367 106.523 42.8127C106.769 42.5781 107.073 42.4607 107.435 42.4607C107.798 42.4607 108.102 42.5727 108.347 42.7967C108.593 43.0101 108.715 43.2821 108.715 43.6127C108.715 43.9647 108.593 44.2634 108.347 44.5087C108.113 44.7434 107.809 44.8607 107.435 44.8607ZM121.836 46.1727C122.914 46.1727 123.767 46.4874 124.396 47.1167C125.026 47.7354 125.34 48.6687 125.34 49.9167V54.8127H123.34V50.1727C123.34 49.4261 123.175 48.8661 122.844 48.4927C122.514 48.1087 122.039 47.9167 121.42 47.9167C120.748 47.9167 120.21 48.1407 119.804 48.5887C119.399 49.0261 119.196 49.6554 119.196 50.4767V54.8127H117.196V50.1727C117.196 49.4261 117.031 48.8661 116.7 48.4927C116.37 48.1087 115.895 47.9167 115.276 47.9167C114.594 47.9167 114.05 48.1354 113.644 48.5727C113.25 49.0101 113.052 49.6447 113.052 50.4767V54.8127H111.052V46.2687H112.956V47.3567C113.276 46.9727 113.676 46.6794 114.156 46.4767C114.636 46.2741 115.17 46.1727 115.756 46.1727C116.396 46.1727 116.962 46.2954 117.452 46.5407C117.954 46.7754 118.348 47.1274 118.636 47.5967C118.988 47.1487 119.442 46.8021 119.996 46.5567C120.551 46.3007 121.164 46.1727 121.836 46.1727ZM131.16 46.1727C132.419 46.1727 133.379 46.4767 134.04 47.0847C134.712 47.6821 135.048 48.5887 135.048 49.8047V54.8127H133.16V53.7727C132.915 54.1461 132.563 54.4341 132.104 54.6367C131.656 54.8287 131.112 54.9247 130.472 54.9247C129.832 54.9247 129.272 54.8181 128.792 54.6047C128.312 54.3807 127.939 54.0767 127.672 53.6927C127.416 53.2981 127.288 52.8554 127.288 52.3647C127.288 51.5967 127.571 50.9834 128.136 50.5247C128.712 50.0554 129.613 49.8207 130.84 49.8207H133.048V49.6927C133.048 49.0954 132.867 48.6367 132.504 48.3167C132.152 47.9967 131.624 47.8367 130.92 47.8367C130.44 47.8367 129.965 47.9114 129.496 48.0607C129.037 48.2101 128.648 48.4181 128.328 48.6847L127.544 47.2287C127.992 46.8874 128.531 46.6261 129.16 46.4447C129.789 46.2634 130.456 46.1727 131.16 46.1727ZM130.888 53.4687C131.389 53.4687 131.832 53.3567 132.216 53.1327C132.611 52.8981 132.888 52.5674 133.048 52.1407V51.1487H130.984C129.832 51.1487 129.256 51.5274 129.256 52.2847C129.256 52.6474 129.4 52.9354 129.688 53.1487C129.976 53.3621 130.376 53.4687 130.888 53.4687ZM139.519 47.5167C140.095 46.6207 141.108 46.1727 142.559 46.1727V48.0767C142.388 48.0447 142.233 48.0287 142.095 48.0287C141.316 48.0287 140.708 48.2581 140.271 48.7167C139.833 49.1647 139.615 49.8154 139.615 50.6687V54.8127H137.615V46.2687H139.519V47.5167ZM152.568 46.2687L148.568 55.5007C148.195 56.4287 147.741 57.0794 147.208 57.4527C146.675 57.8367 146.029 58.0287 145.272 58.0287C144.845 58.0287 144.424 57.9594 144.008 57.8207C143.592 57.6821 143.251 57.4901 142.984 57.2447L143.784 55.7727C143.976 55.9541 144.2 56.0981 144.456 56.2047C144.723 56.3114 144.989 56.3647 145.256 56.3647C145.608 56.3647 145.896 56.2741 146.12 56.0927C146.355 55.9114 146.568 55.6074 146.76 55.1807L146.904 54.8447L143.176 46.2687H145.256L147.944 52.5887L150.648 46.2687H152.568ZM89.3521 72.2207H83.7521L82.6481 74.8127H80.5041L85.5441 63.6127H87.5921L92.6481 74.8127H90.4721L89.3521 72.2207ZM88.6641 70.5887L86.5521 65.6927L84.4561 70.5887H88.6641ZM101.996 66.2687V74.8127H100.092V73.7247C99.7722 74.1087 99.3722 74.4074 98.8922 74.6207C98.4122 74.8234 97.8949 74.9247 97.3402 74.9247C96.1989 74.9247 95.2975 74.6101 94.6362 73.9807C93.9855 73.3407 93.6602 72.3967 93.6602 71.1487V66.2687H95.6602V70.8767C95.6602 71.6447 95.8309 72.2207 96.1722 72.6047C96.5242 72.9781 97.0202 73.1647 97.6602 73.1647C98.3749 73.1647 98.9402 72.9461 99.3562 72.5087C99.7829 72.0607 99.9962 71.4207 99.9962 70.5887V66.2687H101.996ZM112.983 62.9407V74.8127H111.063V73.7087C110.732 74.1141 110.321 74.4181 109.831 74.6207C109.351 74.8234 108.817 74.9247 108.231 74.9247C107.409 74.9247 106.668 74.7434 106.007 74.3807C105.356 74.0181 104.844 73.5061 104.471 72.8447C104.097 72.1727 103.911 71.4047 103.911 70.5407C103.911 69.6767 104.097 68.9141 104.471 68.2527C104.844 67.5914 105.356 67.0794 106.007 66.7167C106.668 66.3541 107.409 66.1727 108.231 66.1727C108.796 66.1727 109.313 66.2687 109.783 66.4607C110.252 66.6527 110.652 66.9407 110.983 67.3247V62.9407H112.983ZM108.471 73.2127C108.951 73.2127 109.383 73.1061 109.767 72.8927C110.151 72.6687 110.455 72.3541 110.679 71.9487C110.903 71.5434 111.015 71.0741 111.015 70.5407C111.015 70.0074 110.903 69.5381 110.679 69.1327C110.455 68.7274 110.151 68.4181 109.767 68.2047C109.383 67.9807 108.951 67.8687 108.471 67.8687C107.991 67.8687 107.559 67.9807 107.175 68.2047C106.791 68.4181 106.487 68.7274 106.263 69.1327C106.039 69.5381 105.927 70.0074 105.927 70.5407C105.927 71.0741 106.039 71.5434 106.263 71.9487C106.487 72.3541 106.791 72.6687 107.175 72.8927C107.559 73.1061 107.991 73.2127 108.471 73.2127ZM115.599 66.2687H117.599V74.8127H115.599V66.2687ZM116.607 64.8607C116.245 64.8607 115.941 64.7487 115.695 64.5247C115.45 64.2901 115.327 64.0021 115.327 63.6607C115.327 63.3194 115.45 63.0367 115.695 62.8127C115.941 62.5781 116.245 62.4607 116.607 62.4607C116.97 62.4607 117.274 62.5727 117.519 62.7967C117.765 63.0101 117.887 63.2821 117.887 63.6127C117.887 63.9647 117.765 64.2634 117.519 64.5087C117.285 64.7434 116.981 64.8607 116.607 64.8607ZM128.256 70.5887C128.256 70.7274 128.246 70.9247 128.224 71.1807H121.52C121.638 71.8101 121.942 72.3114 122.432 72.6847C122.934 73.0474 123.552 73.2287 124.288 73.2287C125.227 73.2287 126 72.9194 126.608 72.3007L127.68 73.5327C127.296 73.9914 126.811 74.3381 126.224 74.5727C125.638 74.8074 124.976 74.9247 124.24 74.9247C123.302 74.9247 122.475 74.7381 121.76 74.3647C121.046 73.9914 120.491 73.4741 120.096 72.8127C119.712 72.1407 119.52 71.3834 119.52 70.5407C119.52 69.7087 119.707 68.9621 120.08 68.3007C120.464 67.6287 120.992 67.1061 121.664 66.7327C122.336 66.3594 123.094 66.1727 123.936 66.1727C124.768 66.1727 125.51 66.3594 126.16 66.7327C126.822 67.0954 127.334 67.6127 127.696 68.2847C128.07 68.9461 128.256 69.7141 128.256 70.5887ZM123.936 67.7727C123.296 67.7727 122.752 67.9647 122.304 68.3487C121.867 68.7221 121.6 69.2234 121.504 69.8527H126.352C126.267 69.2341 126.006 68.7327 125.568 68.3487C125.131 67.9647 124.587 67.7727 123.936 67.7727ZM135.025 66.1727C136.103 66.1727 136.967 66.4874 137.617 67.1167C138.268 67.7461 138.593 68.6794 138.593 69.9167V74.8127H136.593V70.1727C136.593 69.4261 136.417 68.8661 136.065 68.4927C135.713 68.1087 135.212 67.9167 134.561 67.9167C133.825 67.9167 133.244 68.1407 132.817 68.5887C132.391 69.0261 132.177 69.6607 132.177 70.4927V74.8127H130.177V66.2687H132.081V67.3727C132.412 66.9781 132.828 66.6794 133.329 66.4767C133.831 66.2741 134.396 66.1727 135.025 66.1727ZM145.129 74.9247C144.243 74.9247 143.449 74.7381 142.745 74.3647C142.041 73.9914 141.491 73.4741 141.097 72.8127C140.702 72.1407 140.505 71.3834 140.505 70.5407C140.505 69.6981 140.702 68.9461 141.097 68.2847C141.491 67.6234 142.035 67.1061 142.729 66.7327C143.433 66.3594 144.233 66.1727 145.129 66.1727C145.971 66.1727 146.707 66.3434 147.337 66.6847C147.977 67.0261 148.457 67.5167 148.777 68.1567L147.241 69.0527C146.995 68.6581 146.686 68.3647 146.313 68.1727C145.95 67.9701 145.55 67.8687 145.113 67.8687C144.366 67.8687 143.747 68.1141 143.257 68.6047C142.766 69.0847 142.521 69.7301 142.521 70.5407C142.521 71.3514 142.761 72.0021 143.241 72.4927C143.731 72.9727 144.355 73.2127 145.113 73.2127C145.55 73.2127 145.95 73.1167 146.313 72.9247C146.686 72.7221 146.995 72.4234 147.241 72.0287L148.777 72.9247C148.446 73.5647 147.961 74.0607 147.321 74.4127C146.691 74.7541 145.961 74.9247 145.129 74.9247ZM158.412 70.5887C158.412 70.7274 158.402 70.9247 158.38 71.1807H151.676C151.794 71.8101 152.098 72.3114 152.588 72.6847C153.09 73.0474 153.708 73.2287 154.444 73.2287C155.383 73.2287 156.156 72.9194 156.764 72.3007L157.836 73.5327C157.452 73.9914 156.967 74.3381 156.38 74.5727C155.794 74.8074 155.132 74.9247 154.396 74.9247C153.458 74.9247 152.631 74.7381 151.916 74.3647C151.202 73.9914 150.647 73.4741 150.252 72.8127C149.868 72.1407 149.676 71.3834 149.676 70.5407C149.676 69.7087 149.863 68.9621 150.236 68.3007C150.62 67.6287 151.148 67.1061 151.82 66.7327C152.492 66.3594 153.25 66.1727 154.092 66.1727C154.924 66.1727 155.666 66.3594 156.316 66.7327C156.978 67.0954 157.49 67.6127 157.852 68.2847C158.226 68.9461 158.412 69.7141 158.412 70.5887ZM154.092 67.7727C153.452 67.7727 152.908 67.9647 152.46 68.3487C152.023 68.7221 151.756 69.2234 151.66 69.8527H156.508C156.423 69.2341 156.162 68.7327 155.724 68.3487C155.287 67.9647 154.743 67.7727 154.092 67.7727Z" fill="white"/>
</svg>
