<svg width="204" height="115" viewBox="0 0 204 115" fill="none" xmlns="http://www.w3.org/2000/svg">
<path d="M0 0.730713C0 0.730713 11.1463 13.7482 22.7699 18.7352C30.6066 22.0974 42.4665 27.0881 56.9351 29.8901C69.609 32.3445 77.4063 33.2732 90.4982 34.5011C106.483 36.0003 123.983 36.1784 123.983 36.1784V8.92902L203.978 61.3316L123.983 114.633V87.3832C123.983 87.3832 110.68 88.1208 97.9199 86.7829C89.7663 85.928 76.9194 83.2618 71.7319 81.6938C56.5707 77.111 49.0569 73.2215 37.4139 65.4402C27.3187 58.6933 16.8318 46.966 9.59039 33.0786C3.27061 20.9587 0 0.730713 0 0.730713Z" fill="#1E88E5"/>
<path d="M74.8992 55.6127C75.8699 55.6127 76.7125 55.7727 77.4272 56.0927C78.1525 56.4127 78.7072 56.8714 79.0912 57.4687C79.4752 58.0661 79.6672 58.7754 79.6672 59.5967C79.6672 60.4074 79.4752 61.1167 79.0912 61.7247C78.7072 62.3221 78.1525 62.7807 77.4272 63.1007C76.7125 63.4207 75.8699 63.5807 74.8992 63.5807H72.3712V66.8127H70.2912V55.6127H74.8992ZM74.8032 61.8207C75.7099 61.8207 76.3979 61.6287 76.8672 61.2447C77.3365 60.8607 77.5712 60.3114 77.5712 59.5967C77.5712 58.8821 77.3365 58.3327 76.8672 57.9487C76.3979 57.5647 75.7099 57.3727 74.8032 57.3727H72.3712V61.8207H74.8032ZM85.3611 66.9247C84.4971 66.9247 83.7184 66.7381 83.0251 66.3647C82.3317 65.9914 81.7877 65.4741 81.3931 64.8127C81.0091 64.1407 80.8171 63.3834 80.8171 62.5407C80.8171 61.6981 81.0091 60.9461 81.3931 60.2847C81.7877 59.6234 82.3317 59.1061 83.0251 58.7327C83.7184 58.3594 84.4971 58.1727 85.3611 58.1727C86.2357 58.1727 87.0197 58.3594 87.7131 58.7327C88.4064 59.1061 88.9451 59.6234 89.3291 60.2847C89.7237 60.9461 89.9211 61.6981 89.9211 62.5407C89.9211 63.3834 89.7237 64.1407 89.3291 64.8127C88.9451 65.4741 88.4064 65.9914 87.7131 66.3647C87.0197 66.7381 86.2357 66.9247 85.3611 66.9247ZM85.3611 65.2127C86.0971 65.2127 86.7051 64.9674 87.1851 64.4767C87.6651 63.9861 87.9051 63.3407 87.9051 62.5407C87.9051 61.7407 87.6651 61.0954 87.1851 60.6047C86.7051 60.1141 86.0971 59.8687 85.3611 59.8687C84.6251 59.8687 84.0171 60.1141 83.5371 60.6047C83.0677 61.0954 82.8331 61.7407 82.8331 62.5407C82.8331 63.3407 83.0677 63.9861 83.5371 64.4767C84.0171 64.9674 84.6251 65.2127 85.3611 65.2127ZM94.4736 66.9247C93.7802 66.9247 93.1029 66.8341 92.4416 66.6527C91.7802 66.4714 91.2522 66.2421 90.8576 65.9647L91.6256 64.4447C92.0096 64.7007 92.4682 64.9087 93.0016 65.0687C93.5456 65.2181 94.0789 65.2927 94.6016 65.2927C95.7962 65.2927 96.3936 64.9781 96.3936 64.3487C96.3936 64.0501 96.2389 63.8421 95.9296 63.7247C95.6309 63.6074 95.1456 63.4954 94.4736 63.3887C93.7696 63.2821 93.1936 63.1594 92.7456 63.0207C92.3082 62.8821 91.9242 62.6421 91.5936 62.3007C91.2736 61.9487 91.1136 61.4634 91.1136 60.8447C91.1136 60.0341 91.4496 59.3887 92.1216 58.9087C92.8042 58.4181 93.7216 58.1727 94.8736 58.1727C95.4602 58.1727 96.0469 58.2421 96.6336 58.3807C97.2202 58.5087 97.7002 58.6847 98.0736 58.9087L97.3056 60.4287C96.5802 60.0021 95.7642 59.7887 94.8576 59.7887C94.2709 59.7887 93.8229 59.8794 93.5136 60.0607C93.2149 60.2314 93.0656 60.4607 93.0656 60.7487C93.0656 61.0687 93.2256 61.2981 93.5456 61.4367C93.8762 61.5647 94.3829 61.6874 95.0656 61.8047C95.7482 61.9114 96.3082 62.0341 96.7456 62.1727C97.1829 62.3114 97.5562 62.5461 97.8656 62.8767C98.1856 63.2074 98.3456 63.6767 98.3456 64.2847C98.3456 65.0847 97.9989 65.7247 97.3056 66.2047C96.6122 66.6847 95.6682 66.9247 94.4736 66.9247ZM100.068 58.2687H102.068V66.8127H100.068V58.2687ZM101.076 56.8607C100.713 56.8607 100.409 56.7487 100.164 56.5247C99.9186 56.2901 99.7959 56.0021 99.7959 55.6607C99.7959 55.3194 99.9186 55.0367 100.164 54.8127C100.409 54.5781 100.713 54.4607 101.076 54.4607C101.439 54.4607 101.743 54.5727 101.988 54.7967C102.233 55.0101 102.356 55.2821 102.356 55.6127C102.356 55.9647 102.233 56.2634 101.988 56.5087C101.753 56.7434 101.449 56.8607 101.076 56.8607ZM109.829 66.3487C109.594 66.5407 109.306 66.6847 108.965 66.7807C108.634 66.8767 108.282 66.9247 107.909 66.9247C106.97 66.9247 106.245 66.6794 105.733 66.1887C105.221 65.6981 104.965 64.9834 104.965 64.0447V59.9327H103.557V58.3327H104.965V56.3807H106.965V58.3327H109.253V59.9327H106.965V63.9967C106.965 64.4127 107.066 64.7327 107.269 64.9567C107.472 65.1701 107.765 65.2767 108.149 65.2767C108.597 65.2767 108.97 65.1594 109.269 64.9247L109.829 66.3487ZM111.474 58.2687H113.474V66.8127H111.474V58.2687ZM112.482 56.8607C112.12 56.8607 111.816 56.7487 111.57 56.5247C111.325 56.2901 111.202 56.0021 111.202 55.6607C111.202 55.3194 111.325 55.0367 111.57 54.8127C111.816 54.5781 112.12 54.4607 112.482 54.4607C112.845 54.4607 113.149 54.5727 113.394 54.7967C113.64 55.0101 113.762 55.2821 113.762 55.6127C113.762 55.9647 113.64 56.2634 113.394 56.5087C113.16 56.7434 112.856 56.8607 112.482 56.8607ZM119.939 66.9247C119.075 66.9247 118.297 66.7381 117.603 66.3647C116.91 65.9914 116.366 65.4741 115.971 64.8127C115.587 64.1407 115.395 63.3834 115.395 62.5407C115.395 61.6981 115.587 60.9461 115.971 60.2847C116.366 59.6234 116.91 59.1061 117.603 58.7327C118.297 58.3594 119.075 58.1727 119.939 58.1727C120.814 58.1727 121.598 58.3594 122.291 58.7327C122.985 59.1061 123.523 59.6234 123.907 60.2847C124.302 60.9461 124.499 61.6981 124.499 62.5407C124.499 63.3834 124.302 64.1407 123.907 64.8127C123.523 65.4741 122.985 65.9914 122.291 66.3647C121.598 66.7381 120.814 66.9247 119.939 66.9247ZM119.939 65.2127C120.675 65.2127 121.283 64.9674 121.763 64.4767C122.243 63.9861 122.483 63.3407 122.483 62.5407C122.483 61.7407 122.243 61.0954 121.763 60.6047C121.283 60.1141 120.675 59.8687 119.939 59.8687C119.203 59.8687 118.595 60.1141 118.115 60.6047C117.646 61.0954 117.411 61.7407 117.411 62.5407C117.411 63.3407 117.646 63.9861 118.115 64.4767C118.595 64.9674 119.203 65.2127 119.939 65.2127ZM131.26 58.1727C132.337 58.1727 133.201 58.4874 133.852 59.1167C134.502 59.7461 134.828 60.6794 134.828 61.9167V66.8127H132.828V62.1727C132.828 61.4261 132.652 60.8661 132.3 60.4927C131.948 60.1087 131.446 59.9167 130.796 59.9167C130.06 59.9167 129.478 60.1407 129.052 60.5887C128.625 61.0261 128.412 61.6607 128.412 62.4927V66.8127H126.412V58.2687H128.316V59.3727C128.646 58.9781 129.062 58.6794 129.564 58.4767C130.065 58.2741 130.63 58.1727 131.26 58.1727ZM137.365 58.2687H139.365V66.8127H137.365V58.2687ZM138.373 56.8607C138.01 56.8607 137.706 56.7487 137.461 56.5247C137.215 56.2901 137.093 56.0021 137.093 55.6607C137.093 55.3194 137.215 55.0367 137.461 54.8127C137.706 54.5781 138.01 54.4607 138.373 54.4607C138.735 54.4607 139.039 54.5727 139.285 54.7967C139.53 55.0101 139.653 55.2821 139.653 55.6127C139.653 55.9647 139.53 56.2634 139.285 56.5087C139.05 56.7434 138.746 56.8607 138.373 56.8607ZM146.838 58.1727C147.915 58.1727 148.779 58.4874 149.43 59.1167C150.08 59.7461 150.406 60.6794 150.406 61.9167V66.8127H148.406V62.1727C148.406 61.4261 148.23 60.8661 147.878 60.4927C147.526 60.1087 147.024 59.9167 146.374 59.9167C145.638 59.9167 145.056 60.1407 144.63 60.5887C144.203 61.0261 143.99 61.6607 143.99 62.4927V66.8127H141.99V58.2687H143.894V59.3727C144.224 58.9781 144.64 58.6794 145.142 58.4767C145.643 58.2741 146.208 58.1727 146.838 58.1727ZM161.501 58.2687V65.5167C161.501 68.5247 159.965 70.0287 156.893 70.0287C156.072 70.0287 155.293 69.9221 154.557 69.7087C153.821 69.5061 153.213 69.2074 152.733 68.8127L153.629 67.3087C154.002 67.6181 154.472 67.8634 155.037 68.0447C155.613 68.2367 156.194 68.3327 156.781 68.3327C157.72 68.3327 158.408 68.1194 158.845 67.6927C159.282 67.2661 159.501 66.6154 159.501 65.7407V65.2927C159.16 65.6661 158.744 65.9487 158.253 66.1407C157.762 66.3327 157.224 66.4287 156.637 66.4287C155.826 66.4287 155.09 66.2581 154.429 65.9167C153.778 65.5647 153.261 65.0741 152.877 64.4447C152.504 63.8154 152.317 63.0954 152.317 62.2847C152.317 61.4741 152.504 60.7594 152.877 60.1407C153.261 59.5114 153.778 59.0261 154.429 58.6847C155.09 58.3434 155.826 58.1727 156.637 58.1727C157.256 58.1727 157.816 58.2741 158.317 58.4767C158.829 58.6794 159.256 58.9887 159.597 59.4047V58.2687H161.501ZM156.941 64.7327C157.698 64.7327 158.317 64.5087 158.797 64.0607C159.288 63.6021 159.533 63.0101 159.533 62.2847C159.533 61.5701 159.288 60.9887 158.797 60.5407C158.317 60.0927 157.698 59.8687 156.941 59.8687C156.173 59.8687 155.544 60.0927 155.053 60.5407C154.573 60.9887 154.333 61.5701 154.333 62.2847C154.333 63.0101 154.573 63.6021 155.053 64.0607C155.544 64.5087 156.173 64.7327 156.941 64.7327Z" fill="white"/>
</svg>
